<svg xmlns="http://www.w3.org/2000/svg" viewBox="0 0 64 64">
  <defs>
    <radialGradient id="wax" cx="35%" cy="30%" r="80%">
      <stop offset="0%" stop-color="#9c3348"/>
      <stop offset="55%" stop-color="#7a2331"/>
      <stop offset="100%" stop-color="#5c1523"/>
    </radialGradient>
  </defs>
  <path d="M32 4
           C40 4 46 6 50 9
           C55 6 60 10 58 15
           C63 18 62 24 58 27
           C61 32 59 38 54 39
           C55 45 50 49 45 47
           C43 53 36 55 32 51
           C28 55 21 53 19 47
           C14 49 9 45 10 39
           C5 38 3 32 6 27
           C2 24 1 18 6 15
           C4 10 9 6 14 9
           C18 6 24 4 32 4 Z"
        fill="url(#wax)"/>
  <circle cx="32" cy="29" r="19" fill="none" stroke="#d9b65c" stroke-width="1.1" opacity="0.75"/>
  <text x="32" y="38" text-anchor="middle" font-family="Georgia, 'Times New Roman', serif"
        font-size="24" font-style="italic" fill="#f3e7c9">J</text>
</svg>
